<mxfile host="app.diagrams.net" modified="2024-01-30T10:43:56.629Z" agent="Mozilla/5.0 (Windows NT 10.0; Win64; x64) AppleWebKit/537.36 (KHTML, like Gecko) Chrome/121.0.0.0 Safari/537.36 Edg/121.0.0.0" etag="eoFjsWxEsCMsVTf6Ri8t" version="23.0.2" type="github">
  <diagram name="Page-1" id="U45NYtDjEI4FAYeAbNTo">
    <mxGraphModel dx="1489" dy="764" grid="1" gridSize="10" guides="1" tooltips="1" connect="1" arrows="1" fold="1" page="1" pageScale="1" pageWidth="850" pageHeight="1100" math="0" shadow="0">
      <root>
        <mxCell id="0" />
        <mxCell id="1" parent="0" />
        <mxCell id="TPfpgC2MNn1oKyn_6Xrf-15" style="edgeStyle=orthogonalEdgeStyle;rounded=0;orthogonalLoop=1;jettySize=auto;html=1;entryX=0;entryY=0.5;entryDx=0;entryDy=0;exitX=1.001;exitY=0.427;exitDx=0;exitDy=0;exitPerimeter=0;" edge="1" parent="1" source="TPfpgC2MNn1oKyn_6Xrf-1" target="TPfpgC2MNn1oKyn_6Xrf-2">
          <mxGeometry relative="1" as="geometry">
            <Array as="points">
              <mxPoint x="482" y="259" />
            </Array>
          </mxGeometry>
        </mxCell>
        <mxCell id="TPfpgC2MNn1oKyn_6Xrf-1" value="" style="rounded=0;whiteSpace=wrap;html=1;" vertex="1" parent="1">
          <mxGeometry x="90" y="80" width="390" height="420" as="geometry" />
        </mxCell>
        <mxCell id="TPfpgC2MNn1oKyn_6Xrf-2" value="" style="rounded=0;whiteSpace=wrap;html=1;" vertex="1" parent="1">
          <mxGeometry x="810" y="80" width="530" height="360" as="geometry" />
        </mxCell>
        <mxCell id="TPfpgC2MNn1oKyn_6Xrf-3" value="" style="rounded=0;whiteSpace=wrap;html=1;" vertex="1" parent="1">
          <mxGeometry x="640" y="560" width="290" height="110" as="geometry" />
        </mxCell>
        <mxCell id="TPfpgC2MNn1oKyn_6Xrf-4" value="Frontend (React.js)" style="text;html=1;strokeColor=none;fillColor=none;align=center;verticalAlign=middle;whiteSpace=wrap;rounded=0;fontSize=18;" vertex="1" parent="1">
          <mxGeometry x="100" y="50" width="390" height="30" as="geometry" />
        </mxCell>
        <mxCell id="TPfpgC2MNn1oKyn_6Xrf-5" value="Backend (Node.js)" style="text;html=1;strokeColor=none;fillColor=none;align=center;verticalAlign=middle;whiteSpace=wrap;rounded=0;fontSize=18;" vertex="1" parent="1">
          <mxGeometry x="810" y="50" width="530" height="30" as="geometry" />
        </mxCell>
        <mxCell id="TPfpgC2MNn1oKyn_6Xrf-6" value="Database (MongoDB)" style="text;html=1;strokeColor=none;fillColor=none;align=center;verticalAlign=middle;whiteSpace=wrap;rounded=0;fontSize=18;" vertex="1" parent="1">
          <mxGeometry x="640" y="530" width="290" height="30" as="geometry" />
        </mxCell>
        <mxCell id="TPfpgC2MNn1oKyn_6Xrf-31" style="edgeStyle=orthogonalEdgeStyle;rounded=0;orthogonalLoop=1;jettySize=auto;html=1;entryX=1;entryY=0.5;entryDx=0;entryDy=0;" edge="1" parent="1" source="TPfpgC2MNn1oKyn_6Xrf-8" target="TPfpgC2MNn1oKyn_6Xrf-28">
          <mxGeometry relative="1" as="geometry" />
        </mxCell>
        <mxCell id="TPfpgC2MNn1oKyn_6Xrf-32" style="edgeStyle=orthogonalEdgeStyle;rounded=0;orthogonalLoop=1;jettySize=auto;html=1;entryX=0;entryY=0.5;entryDx=0;entryDy=0;" edge="1" parent="1" source="TPfpgC2MNn1oKyn_6Xrf-8" target="TPfpgC2MNn1oKyn_6Xrf-29">
          <mxGeometry relative="1" as="geometry" />
        </mxCell>
        <mxCell id="TPfpgC2MNn1oKyn_6Xrf-8" value="Services" style="rounded=0;whiteSpace=wrap;html=1;fontStyle=1" vertex="1" parent="1">
          <mxGeometry x="247.5" y="360" width="70" height="30" as="geometry" />
        </mxCell>
        <mxCell id="TPfpgC2MNn1oKyn_6Xrf-23" style="edgeStyle=orthogonalEdgeStyle;rounded=0;orthogonalLoop=1;jettySize=auto;html=1;entryX=0.5;entryY=0;entryDx=0;entryDy=0;" edge="1" parent="1" source="TPfpgC2MNn1oKyn_6Xrf-9" target="TPfpgC2MNn1oKyn_6Xrf-22">
          <mxGeometry relative="1" as="geometry" />
        </mxCell>
        <mxCell id="TPfpgC2MNn1oKyn_6Xrf-9" value="Controllers" style="rounded=0;whiteSpace=wrap;html=1;fontStyle=1" vertex="1" parent="1">
          <mxGeometry x="820" y="110" width="120" height="60" as="geometry" />
        </mxCell>
        <mxCell id="TPfpgC2MNn1oKyn_6Xrf-25" style="edgeStyle=orthogonalEdgeStyle;rounded=0;orthogonalLoop=1;jettySize=auto;html=1;entryX=0.5;entryY=0;entryDx=0;entryDy=0;" edge="1" parent="1" source="TPfpgC2MNn1oKyn_6Xrf-10" target="TPfpgC2MNn1oKyn_6Xrf-24">
          <mxGeometry relative="1" as="geometry" />
        </mxCell>
        <mxCell id="TPfpgC2MNn1oKyn_6Xrf-58" style="edgeStyle=orthogonalEdgeStyle;rounded=0;orthogonalLoop=1;jettySize=auto;html=1;" edge="1" parent="1" source="TPfpgC2MNn1oKyn_6Xrf-10" target="TPfpgC2MNn1oKyn_6Xrf-57">
          <mxGeometry relative="1" as="geometry" />
        </mxCell>
        <mxCell id="TPfpgC2MNn1oKyn_6Xrf-60" style="edgeStyle=orthogonalEdgeStyle;rounded=0;orthogonalLoop=1;jettySize=auto;html=1;entryX=0;entryY=0.5;entryDx=0;entryDy=0;exitX=0.5;exitY=1;exitDx=0;exitDy=0;" edge="1" parent="1" source="TPfpgC2MNn1oKyn_6Xrf-10" target="TPfpgC2MNn1oKyn_6Xrf-59">
          <mxGeometry relative="1" as="geometry">
            <Array as="points">
              <mxPoint x="1060" y="190" />
              <mxPoint x="1080" y="190" />
            </Array>
          </mxGeometry>
        </mxCell>
        <mxCell id="TPfpgC2MNn1oKyn_6Xrf-10" value="Models" style="rounded=0;whiteSpace=wrap;html=1;fontStyle=1" vertex="1" parent="1">
          <mxGeometry x="1000" y="110" width="120" height="60" as="geometry" />
        </mxCell>
        <mxCell id="TPfpgC2MNn1oKyn_6Xrf-27" style="edgeStyle=orthogonalEdgeStyle;rounded=0;orthogonalLoop=1;jettySize=auto;html=1;entryX=0.5;entryY=0;entryDx=0;entryDy=0;" edge="1" parent="1" source="TPfpgC2MNn1oKyn_6Xrf-11" target="TPfpgC2MNn1oKyn_6Xrf-26">
          <mxGeometry relative="1" as="geometry" />
        </mxCell>
        <mxCell id="TPfpgC2MNn1oKyn_6Xrf-11" value="Services" style="rounded=0;whiteSpace=wrap;html=1;fontStyle=1" vertex="1" parent="1">
          <mxGeometry x="1210" y="110" width="120" height="60" as="geometry" />
        </mxCell>
        <mxCell id="TPfpgC2MNn1oKyn_6Xrf-13" value="minutes" style="rounded=0;whiteSpace=wrap;html=1;" vertex="1" parent="1">
          <mxGeometry x="725" y="585" width="120" height="60" as="geometry" />
        </mxCell>
        <mxCell id="TPfpgC2MNn1oKyn_6Xrf-16" value="" style="endArrow=classic;html=1;rounded=0;exitX=-0.003;exitY=0.608;exitDx=0;exitDy=0;exitPerimeter=0;" edge="1" parent="1" source="TPfpgC2MNn1oKyn_6Xrf-2">
          <mxGeometry width="50" height="50" relative="1" as="geometry">
            <mxPoint x="811" y="298" as="sourcePoint" />
            <mxPoint x="480" y="299" as="targetPoint" />
          </mxGeometry>
        </mxCell>
        <mxCell id="TPfpgC2MNn1oKyn_6Xrf-17" value="Axios" style="text;html=1;strokeColor=none;fillColor=none;align=center;verticalAlign=middle;whiteSpace=wrap;rounded=0;" vertex="1" parent="1">
          <mxGeometry x="560" y="230" width="160" height="30" as="geometry" />
        </mxCell>
        <mxCell id="TPfpgC2MNn1oKyn_6Xrf-18" value="Express" style="text;html=1;strokeColor=none;fillColor=none;align=center;verticalAlign=middle;whiteSpace=wrap;rounded=0;" vertex="1" parent="1">
          <mxGeometry x="610" y="270" width="60" height="30" as="geometry" />
        </mxCell>
        <mxCell id="TPfpgC2MNn1oKyn_6Xrf-19" value="HTTP (REST API)" style="text;html=1;strokeColor=none;fillColor=none;align=center;verticalAlign=middle;whiteSpace=wrap;rounded=0;fontSize=24;" vertex="1" parent="1">
          <mxGeometry x="580" y="180" width="140" height="30" as="geometry" />
        </mxCell>
        <mxCell id="TPfpgC2MNn1oKyn_6Xrf-20" value="" style="endArrow=classic;startArrow=classic;html=1;rounded=0;entryX=0.5;entryY=1;entryDx=0;entryDy=0;exitX=1;exitY=0.5;exitDx=0;exitDy=0;" edge="1" parent="1" source="TPfpgC2MNn1oKyn_6Xrf-3" target="TPfpgC2MNn1oKyn_6Xrf-2">
          <mxGeometry width="50" height="50" relative="1" as="geometry">
            <mxPoint x="1020" y="660" as="sourcePoint" />
            <mxPoint x="1070" y="610" as="targetPoint" />
            <Array as="points">
              <mxPoint x="1075" y="615" />
            </Array>
          </mxGeometry>
        </mxCell>
        <mxCell id="TPfpgC2MNn1oKyn_6Xrf-22" value="&lt;b&gt;minutesController&lt;/b&gt;&lt;br&gt;+getById&lt;br&gt;+post&lt;br&gt;+patch" style="rounded=0;whiteSpace=wrap;html=1;" vertex="1" parent="1">
          <mxGeometry x="820" y="207.5" width="120" height="75" as="geometry" />
        </mxCell>
        <mxCell id="TPfpgC2MNn1oKyn_6Xrf-24" value="&lt;b&gt;Minutes&lt;/b&gt;&lt;br&gt;+name: String&lt;br&gt;+id: String&lt;br&gt;+color: String&lt;br&gt;+segment: Segment[]&lt;br&gt;+startTime: Date&lt;br&gt;+signature: Signature[]" style="rounded=0;whiteSpace=wrap;html=1;" vertex="1" parent="1">
          <mxGeometry x="950" y="210" width="120" height="130" as="geometry" />
        </mxCell>
        <mxCell id="TPfpgC2MNn1oKyn_6Xrf-26" value="&lt;b&gt;minutesService&lt;/b&gt;&lt;br&gt;+getById&lt;br&gt;+save&lt;br&gt;+update" style="rounded=0;whiteSpace=wrap;html=1;" vertex="1" parent="1">
          <mxGeometry x="1210" y="215" width="120" height="75" as="geometry" />
        </mxCell>
        <mxCell id="TPfpgC2MNn1oKyn_6Xrf-28" value="&lt;b&gt;PDFService&lt;/b&gt;&lt;br&gt;+getPreview&lt;br&gt;+download" style="rounded=0;whiteSpace=wrap;html=1;" vertex="1" parent="1">
          <mxGeometry x="190" y="410" width="70" height="60" as="geometry" />
        </mxCell>
        <mxCell id="TPfpgC2MNn1oKyn_6Xrf-29" value="&lt;b&gt;minutesService&lt;br&gt;&lt;/b&gt;+getById&lt;br&gt;+save&lt;br&gt;+update" style="rounded=0;whiteSpace=wrap;html=1;" vertex="1" parent="1">
          <mxGeometry x="310" y="410" width="100" height="60" as="geometry" />
        </mxCell>
        <mxCell id="TPfpgC2MNn1oKyn_6Xrf-33" value="State Management: React ContextAPI" style="rounded=0;whiteSpace=wrap;html=1;" vertex="1" parent="1">
          <mxGeometry x="107.5" y="210" width="117.5" height="35" as="geometry" />
        </mxCell>
        <mxCell id="TPfpgC2MNn1oKyn_6Xrf-39" style="edgeStyle=orthogonalEdgeStyle;rounded=0;orthogonalLoop=1;jettySize=auto;html=1;entryX=0.5;entryY=0;entryDx=0;entryDy=0;" edge="1" parent="1" source="TPfpgC2MNn1oKyn_6Xrf-35" target="TPfpgC2MNn1oKyn_6Xrf-36">
          <mxGeometry relative="1" as="geometry" />
        </mxCell>
        <mxCell id="TPfpgC2MNn1oKyn_6Xrf-35" value="Components" style="rounded=0;whiteSpace=wrap;html=1;fontStyle=1" vertex="1" parent="1">
          <mxGeometry x="222.5" y="130" width="125" height="40" as="geometry" />
        </mxCell>
        <mxCell id="TPfpgC2MNn1oKyn_6Xrf-42" style="edgeStyle=orthogonalEdgeStyle;rounded=0;orthogonalLoop=1;jettySize=auto;html=1;entryX=0.5;entryY=0;entryDx=0;entryDy=0;" edge="1" parent="1" source="TPfpgC2MNn1oKyn_6Xrf-36" target="TPfpgC2MNn1oKyn_6Xrf-41">
          <mxGeometry relative="1" as="geometry" />
        </mxCell>
        <mxCell id="TPfpgC2MNn1oKyn_6Xrf-44" style="edgeStyle=orthogonalEdgeStyle;rounded=0;orthogonalLoop=1;jettySize=auto;html=1;entryX=1;entryY=0.5;entryDx=0;entryDy=0;strokeColor=default;endArrow=none;endFill=0;" edge="1" parent="1" source="TPfpgC2MNn1oKyn_6Xrf-36" target="TPfpgC2MNn1oKyn_6Xrf-33">
          <mxGeometry relative="1" as="geometry">
            <Array as="points">
              <mxPoint x="285" y="228" />
              <mxPoint x="233" y="228" />
            </Array>
          </mxGeometry>
        </mxCell>
        <mxCell id="TPfpgC2MNn1oKyn_6Xrf-36" value="main.jsx" style="rounded=0;whiteSpace=wrap;html=1;" vertex="1" parent="1">
          <mxGeometry x="252.5" y="195" width="65" height="20" as="geometry" />
        </mxCell>
        <mxCell id="TPfpgC2MNn1oKyn_6Xrf-38" value="TopBar.jsx" style="rounded=0;whiteSpace=wrap;html=1;" vertex="1" parent="1">
          <mxGeometry x="150" y="290" width="80" height="20" as="geometry" />
        </mxCell>
        <mxCell id="TPfpgC2MNn1oKyn_6Xrf-45" style="edgeStyle=orthogonalEdgeStyle;rounded=0;orthogonalLoop=1;jettySize=auto;html=1;" edge="1" parent="1" source="TPfpgC2MNn1oKyn_6Xrf-41" target="TPfpgC2MNn1oKyn_6Xrf-38">
          <mxGeometry relative="1" as="geometry">
            <Array as="points">
              <mxPoint x="285" y="270" />
              <mxPoint x="190" y="270" />
            </Array>
          </mxGeometry>
        </mxCell>
        <mxCell id="TPfpgC2MNn1oKyn_6Xrf-47" style="edgeStyle=orthogonalEdgeStyle;rounded=0;orthogonalLoop=1;jettySize=auto;html=1;entryX=0.5;entryY=0;entryDx=0;entryDy=0;" edge="1" parent="1" source="TPfpgC2MNn1oKyn_6Xrf-41" target="TPfpgC2MNn1oKyn_6Xrf-46">
          <mxGeometry relative="1" as="geometry" />
        </mxCell>
        <mxCell id="TPfpgC2MNn1oKyn_6Xrf-49" style="edgeStyle=orthogonalEdgeStyle;rounded=0;orthogonalLoop=1;jettySize=auto;html=1;" edge="1" parent="1" source="TPfpgC2MNn1oKyn_6Xrf-41" target="TPfpgC2MNn1oKyn_6Xrf-48">
          <mxGeometry relative="1" as="geometry">
            <Array as="points">
              <mxPoint x="285" y="270" />
              <mxPoint x="385" y="270" />
            </Array>
          </mxGeometry>
        </mxCell>
        <mxCell id="TPfpgC2MNn1oKyn_6Xrf-41" value="App.jsx" style="rounded=0;whiteSpace=wrap;html=1;" vertex="1" parent="1">
          <mxGeometry x="252.5" y="240" width="65" height="20" as="geometry" />
        </mxCell>
        <mxCell id="TPfpgC2MNn1oKyn_6Xrf-46" value="Editor.jsx" style="rounded=0;whiteSpace=wrap;html=1;" vertex="1" parent="1">
          <mxGeometry x="245" y="290" width="80" height="20" as="geometry" />
        </mxCell>
        <mxCell id="TPfpgC2MNn1oKyn_6Xrf-48" value="Footer.jsx" style="rounded=0;whiteSpace=wrap;html=1;" vertex="1" parent="1">
          <mxGeometry x="345" y="290" width="80" height="20" as="geometry" />
        </mxCell>
        <mxCell id="TPfpgC2MNn1oKyn_6Xrf-51" value="" style="endArrow=classic;html=1;rounded=0;exitX=1;exitY=0.25;exitDx=0;exitDy=0;" edge="1" parent="1" source="TPfpgC2MNn1oKyn_6Xrf-29">
          <mxGeometry width="50" height="50" relative="1" as="geometry">
            <mxPoint x="410" y="580" as="sourcePoint" />
            <mxPoint x="480" y="260" as="targetPoint" />
            <Array as="points">
              <mxPoint x="460" y="425" />
              <mxPoint x="460" y="260" />
            </Array>
          </mxGeometry>
        </mxCell>
        <mxCell id="TPfpgC2MNn1oKyn_6Xrf-52" value="" style="endArrow=classic;html=1;rounded=0;exitX=1.003;exitY=0.521;exitDx=0;exitDy=0;exitPerimeter=0;entryX=1;entryY=0.75;entryDx=0;entryDy=0;" edge="1" parent="1" source="TPfpgC2MNn1oKyn_6Xrf-1" target="TPfpgC2MNn1oKyn_6Xrf-29">
          <mxGeometry width="50" height="50" relative="1" as="geometry">
            <mxPoint x="510" y="420" as="sourcePoint" />
            <mxPoint x="560" y="370" as="targetPoint" />
            <Array as="points">
              <mxPoint x="470" y="299" />
              <mxPoint x="470" y="455" />
            </Array>
          </mxGeometry>
        </mxCell>
        <mxCell id="TPfpgC2MNn1oKyn_6Xrf-56" value="" style="endArrow=classic;html=1;rounded=0;exitX=0.5;exitY=1;exitDx=0;exitDy=0;entryX=0.5;entryY=1;entryDx=0;entryDy=0;startArrow=classic;startFill=1;" edge="1" parent="1" source="TPfpgC2MNn1oKyn_6Xrf-26" target="TPfpgC2MNn1oKyn_6Xrf-2">
          <mxGeometry width="50" height="50" relative="1" as="geometry">
            <mxPoint x="1190" y="400" as="sourcePoint" />
            <mxPoint x="1240" y="350" as="targetPoint" />
            <Array as="points">
              <mxPoint x="1270" y="400" />
              <mxPoint x="1170" y="400" />
              <mxPoint x="1075" y="400" />
            </Array>
          </mxGeometry>
        </mxCell>
        <mxCell id="TPfpgC2MNn1oKyn_6Xrf-57" value="&lt;b&gt;Segment&lt;/b&gt;&lt;br&gt;+name: String&lt;br&gt;+content: String[]" style="rounded=0;whiteSpace=wrap;html=1;" vertex="1" parent="1">
          <mxGeometry x="1090" y="210" width="110" height="50" as="geometry" />
        </mxCell>
        <mxCell id="TPfpgC2MNn1oKyn_6Xrf-59" value="&lt;b&gt;Signature&lt;/b&gt;&lt;br&gt;+signer: String&lt;br&gt;+timestamp: Date&lt;br&gt;+Image: String (base64)" style="rounded=0;whiteSpace=wrap;html=1;" vertex="1" parent="1">
          <mxGeometry x="1090" y="270" width="110" height="80" as="geometry" />
        </mxCell>
      </root>
    </mxGraphModel>
  </diagram>
</mxfile>
